<?xml version="1.0" encoding="UTF-8"?>
<svg id="Layer_1" xmlns="http://www.w3.org/2000/svg" version="1.1" viewBox="0 0 1920 436">
  <!-- Generator: Adobe Illustrator 29.8.2, SVG Export Plug-In . SVG Version: 2.1.1 Build 3)  -->
  <defs>
    <style>
      .st0 {
        fill: #eadfcf;
      }
    </style>
  </defs>
  <rect class="st0" x="-40" y="646" width="1934" height="1099"/>
  <g>
    <g>
      <path class="st0" d="M417.8,160.51c1.57,0,2.66,1.02,3.29,3.06l38.1,126.53c.15,1.1.78,1.65,1.88,1.65h1.18c.94,0,1.56-.55,1.88-1.65l38.1-115.95c1.72-5.33,4-8.94,6.82-10.82,2.82-1.88,6.35-2.82,10.58-2.82h23.28c5.17,0,9.13,1.02,11.88,3.06,2.74,2.04,4.98,5.57,6.7,10.58l39.04,115.95c.31,1.1.94,1.65,1.88,1.65h1.41c.94,0,1.57-.55,1.88-1.65l37.16-126.53c.31-1.25.82-2.08,1.53-2.47.71-.39,1.45-.59,2.23-.59h31.75c1.25,0,2,.55,2.23,1.65.24,1.1.12,2.35-.35,3.76l-45.16,141.35c-2.2,7.05-4.63,11.8-7.29,14.23-2.67,2.43-6.27,3.65-10.82,3.65h-27.52c-4.55,0-8.11-1.25-10.7-3.76-2.59-2.51-5.06-7.21-7.41-14.11l-36.92-111.71c-.16-1.09-.79-1.65-1.88-1.65h-.94c-1.1,0-1.73.55-1.88,1.65l-37.39,111.71c-2.35,6.9-4.82,11.6-7.41,14.11-2.59,2.51-6.16,3.76-10.7,3.76h-26.81c-2.67,0-4.98-.23-6.94-.71-1.96-.47-3.73-1.37-5.29-2.7-1.57-1.33-2.94-3.17-4.12-5.53s-2.31-5.33-3.41-8.94l-43.27-141.35c-.47-1.57-.59-2.86-.35-3.88.23-1.02.98-1.53,2.23-1.53h31.51Z"/>
      <path class="st0" d="M875.71,160.51c3.61,0,5.41,1.73,5.41,5.17v22.34c0,3.45-1.8,5.17-5.41,5.17h-102.78c-6.11,0-11.17.51-15.17,1.53-4,1.02-7.21,2.74-9.64,5.17-2.43,2.43-4.12,5.73-5.06,9.88-.94,4.16-1.41,9.29-1.41,15.41v2.35h132.88c3.45,0,5.17,1.73,5.17,5.17v18.58c0,3.45-1.73,5.18-5.17,5.18h-132.88v4c0,6.12.47,11.25,1.41,15.4.94,4.16,2.62,7.45,5.06,9.88,2.43,2.43,5.64,4.16,9.64,5.17,4,1.02,9.06,1.53,15.17,1.53h102.78c3.61,0,5.41,1.73,5.41,5.17v22.34c0,3.45-1.8,5.17-5.41,5.17h-103.48c-11.92,0-22.03-1.09-30.34-3.29-8.31-2.19-15.09-5.76-20.34-10.7-5.25-4.94-9.1-11.37-11.52-19.28-2.43-7.92-3.64-17.52-3.64-28.81v-40.45c0-11.29,1.21-20.85,3.64-28.69,2.43-7.84,6.27-14.23,11.52-19.17,5.25-4.94,12.03-8.54,20.34-10.82,8.31-2.27,18.42-3.41,30.34-3.41h103.48Z"/>
      <path class="st0" d="M966.49,160.51c3.45,0,6.43.24,8.94.71,2.51.47,4.7,1.37,6.59,2.7,1.88,1.33,3.56,3.14,5.06,5.41,1.49,2.27,3.02,5.29,4.58,9.06l48.92,112.89c.62,1.41,1.72,2.12,3.29,2.12h2.82c1.57,0,2.66-.71,3.29-2.12l48.92-112.89c1.57-3.76,3.09-6.78,4.59-9.06,1.49-2.27,3.17-4.08,5.06-5.41,1.88-1.33,4.04-2.23,6.47-2.7,2.43-.47,5.37-.71,8.82-.71h25.17c8.15,0,13.64,1.84,16.46,5.53,2.82,3.69,4.23,10,4.23,18.93v135c0,3.45-1.8,5.17-5.41,5.17h-23.99c-3.45,0-5.17-1.72-5.17-5.17v-122.77c0-1.56-.63-2.35-1.88-2.35h-2.12c-1.57,0-2.59.63-3.06,1.88l-47.51,105.36c-1.88,4.23-3.8,7.8-5.76,10.7-1.96,2.9-4.08,5.29-6.35,7.17-2.27,1.88-4.86,3.22-7.76,4-2.9.79-6.31,1.18-10.23,1.18h-11.29c-3.92,0-7.33-.39-10.23-1.18-2.9-.78-5.49-2.12-7.76-4-2.27-1.88-4.39-4.27-6.35-7.17-1.96-2.9-3.88-6.47-5.76-10.7l-47.51-105.36c-.47-1.25-1.49-1.88-3.06-1.88h-2.12c-1.26,0-1.88.79-1.88,2.35v122.77c0,3.45-1.73,5.17-5.17,5.17h-23.99c-3.61,0-5.41-1.72-5.41-5.17v-135c0-8.94,1.41-15.25,4.23-18.93,2.82-3.68,8.39-5.53,16.7-5.53h25.63Z"/>
      <path class="st0" d="M1316.91,160.51c5.96,0,10.97,1.22,15.05,3.65,4.08,2.43,8.07,7.17,12,14.23l77.84,141.35c.78,1.57.98,2.86.59,3.88-.39,1.02-1.53,1.53-3.41,1.53h-29.87c-2.67,0-4.47-1.02-5.41-3.06l-16.7-30.34h-110.54l-16.23,30.34c-1.1,2.04-2.9,3.06-5.41,3.06h-30.57c-2.04,0-3.26-.51-3.65-1.53-.39-1.02-.2-2.31.59-3.88l77.14-141.35c3.92-7.06,7.76-11.8,11.52-14.23,3.77-2.43,8.15-3.65,13.17-3.65h13.88ZM1271.29,264.46h80.9l-37.4-68.91c-.63-1.09-1.49-1.65-2.59-1.65h-1.41c-1.1,0-1.96.55-2.59,1.65l-36.92,68.91Z"/>
      <path class="st0" d="M1586.9,160.51c18.03,0,30.96,4.08,38.81,12.23,7.84,8.16,11.76,20.23,11.76,36.22v13.4c0,13.49-2.74,24.15-8.23,31.99-5.49,7.84-14.43,12.86-26.81,15.05l40.22,49.86c.78.79,1.02,1.96.71,3.53-.32,1.57-1.57,2.35-3.77,2.35h-30.34c-2.04,0-3.45-.23-4.23-.71-.78-.47-1.57-1.25-2.35-2.35l-37.16-48.92h-75.96v46.8c0,3.45-1.73,5.17-5.17,5.17h-25.4c-3.61,0-5.41-1.72-5.41-5.17v-152.4c0-4.7,2.35-7.06,7.06-7.06h126.29ZM1489.54,244.47h90.07c8,0,13.64-1.72,16.93-5.17,3.29-3.45,4.94-8.7,4.94-15.76v-9.88c0-7.06-1.65-12.31-4.94-15.76-3.29-3.45-8.93-5.17-16.93-5.17h-87.02c-2.04,0-3.06.94-3.06,2.82v48.92Z"/>
      <path class="st0" d="M1708.97,160.51c3.45,0,5.17,1.73,5.17,5.17v62.56h33.16c3.76,0,6.9-.12,9.41-.35,2.5-.23,4.7-.74,6.58-1.53,1.88-.78,3.61-1.88,5.17-3.29,1.57-1.41,3.21-3.21,4.94-5.41l40.45-54.09c.78-1.1,1.57-1.88,2.35-2.35.78-.47,2.27-.71,4.47-.71h29.17c2.03,0,3.25.67,3.64,2,.39,1.33.19,2.55-.58,3.65l-45.63,59.03c-2.67,3.61-5.14,6.66-7.41,9.17-2.27,2.51-4.51,4.7-6.7,6.58,6.11,3.76,12.07,9.41,17.87,16.93l48.21,61.15c.62.79.86,2,.71,3.65-.16,1.65-1.41,2.47-3.77,2.47h-30.1c-2.04,0-3.45-.23-4.23-.71-.78-.47-1.57-1.25-2.35-2.35l-43.27-55.98c-3.14-4.08-6.51-6.86-10.11-8.35-3.61-1.49-9.01-2.23-16.23-2.23h-35.75v64.44c0,3.45-1.73,5.17-5.17,5.17h-25.4c-3.61,0-5.41-1.72-5.41-5.17v-154.28c0-3.45,1.8-5.17,5.41-5.17h25.4Z"/>
    </g>
    <g>
      <path class="st0" d="M315.62,163.77c-15.3,7.66-30.12,16.5-44.15,25.88-.15-17.45.44-52.51.44-52.51l-20.53-14.62-21.93,12.15v-15.28l-30.28-20.53-36.92,19.6v26.62l-17.37-9.68-29.4,18.8v98.1c-19.01-15.05-36.1-24.66-47.33-30.15-1.15-6.88-1.75-13.94-1.75-21.14,0-70.35,57.03-127.38,127.38-127.38,57.4,0,105.93,37.96,121.85,90.15Z"/>
      <path class="st0" d="M175.15,163.94v106.29c-12.42,12.58-19.49,20.75-19.49,20.75-3.23-3.77-6.48-7.36-9.74-10.8v-135.92l29.23,19.68Z"/>
      <path class="st0" d="M202.3,107.56v136.64c-7.4,6.72-14.07,13.08-19.91,18.81l-.62-103.59-13.23-8.35v-27.69l33.76-15.81Z"/>
      <path class="st0" d="M253.11,135.4v67.12c-10.28,7.53-20.02,15.22-29.07,22.76l-1.21-77.69,30.28-12.18Z"/>
      <path class="st0" d="M53,234.94s45.41,8.95,101.27,74.82c0,0,113.27-125.26,210.92-146.8,0,0-185.87,173.64-208.47,198.29,0,0-82.11-108.81-103.72-126.32Z"/>
    </g>
  </g>
</svg>